<?xml version="1.0" encoding="UTF-8" standalone="no"?>
<svg
   xmlns:dc="http://purl.org/dc/elements/1.1/"
   xmlns:cc="http://creativecommons.org/ns#"
   xmlns:rdf="http://www.w3.org/1999/02/22-rdf-syntax-ns#"
   xmlns:svg="http://www.w3.org/2000/svg"
   xmlns="http://www.w3.org/2000/svg"
   xmlns:sodipodi="http://sodipodi.sourceforge.net/DTD/sodipodi-0.dtd"
   xmlns:inkscape="http://www.inkscape.org/namespaces/inkscape"
   version="1.0"
   width="299.99649"
   height="225.92412"
   viewBox="0 0 85.704 64.542"
   id="Layer_1"
   xml:space="preserve"
   sodipodi:docname="bubble.svg"
   inkscape:version="1.0 (4035a4fb49, 2020-05-01)"><metadata
   id="metadata8"><rdf:RDF><cc:Work
       rdf:about=""><dc:format>image/svg+xml</dc:format><dc:type
         rdf:resource="http://purl.org/dc/dcmitype/StillImage" /><dc:title /></cc:Work></rdf:RDF></metadata><sodipodi:namedview
   inkscape:document-rotation="0"
   pagecolor="#ffffff"
   bordercolor="#666666"
   borderopacity="1"
   objecttolerance="10"
   gridtolerance="10"
   guidetolerance="10"
   inkscape:pageopacity="0"
   inkscape:pageshadow="2"
   inkscape:window-width="1920"
   inkscape:window-height="1171"
   id="namedview6"
   showgrid="false"
   showguides="false"
   inkscape:zoom="0.78715525"
   inkscape:cx="282.99005"
   inkscape:cy="366.08337"
   inkscape:window-x="0"
   inkscape:window-y="0"
   inkscape:window-maximized="1"
   inkscape:current-layer="Layer_1" /><defs
   id="defs8" />
<g
   transform="matrix(0.9486962,0,0,0.9486962,2.4834364,1.8361818)"
   id="g3"
   style="fill:#000000;fill-opacity:1;stroke-width:1.50566294;stroke-miterlimit:4;stroke-dasharray:none">
	<path
   sodipodi:nodetypes="cssccccscssccccccccsss"
   d="m 45.673,0 c 22.108,0 40.03,12.475 40.03,27.862 0,15.387 -17.922,27.862 -40.03,27.862 -6.931,0 -13.449,-1.227 -19.134,-3.384 C 15.319,56.564 0,64.542 0,64.542 c 0,0 9.989,-5.655 14.107,-12.521 1.052,-1.755 1.668,-3.595 2.021,-5.362 C 9.618,41.704 5.643,35.106 5.643,27.862 5.643,12.475 23.565,0 45.673,0 m -0.03465,4.8844425 c -20.849,0 -34.943548,8.7726185 -34.943548,22.9126185 0,6.266 1.536267,11.095822 7.733267,15.811822 l 1.00013,1.666089 0.473925,1.836201 c 0.667793,2.155953 -2.814128,4.254827 -3.891128,6.051827 -0.341,0.567 -0.717,1.127 -1.12,1.674 3.625,-1.646 7.37189,-4.370709 9.915404,-6.006819 l 2.406545,-1.424926 v 0 c 5.584,2.119 11.796531,3.123409 18.214531,3.123409 20.849,0 35.170523,-7.973129 35.170523,-22.113129 0,-14.14 -14.110648,-23.5310925 -34.959649,-23.5310925 z"
   id="path5"
   style="fill:#000000;fill-opacity:1;stroke-width:1.50566;stroke-miterlimit:4;stroke-dasharray:none" />
</g>
<g
   id="g872"
   transform="translate(0,0.54258582)"><circle
     r="2.7657957"
     cy="27.338037"
     cx="35.18578"
     id="path837"
     style="fill:#000000;fill-opacity:1;stroke-width:0.177079" /><circle
     style="fill:#000000;fill-opacity:1;stroke-width:0.177079"
     id="path837-3"
     cx="46.31271"
     cy="27.338037"
     r="2.7657957" /><circle
     r="2.7657957"
     cy="27.338037"
     cx="57.439644"
     id="path837-3-6"
     style="fill:#000000;fill-opacity:1;stroke-width:0.177079" /></g></svg>
